G04*
G04 #@! TF.GenerationSoftware,Altium Limited,CircuitStudio,1.5.2 (1.5.2.30)*
G04*
G04 Layer_Color=15065295*
%FSLAX44Y44*%
%MOMM*%
G71*
G01*
G75*
%ADD12C,0.2540*%
%ADD13C,0.1524*%
%ADD25C,0.0127*%
%ADD26C,0.1778*%
G36*
X654905Y436601D02*
X654903Y436579D01*
X654921Y436587D01*
X655311Y436425D01*
X655312Y436427D01*
X655546Y436330D01*
X655621Y436149D01*
X655632Y436157D01*
X655808Y435731D01*
X655800Y435729D01*
X655895Y435247D01*
X655892Y435230D01*
X655893Y435231D01*
X655896Y435218D01*
X655751Y434490D01*
X655757Y434487D01*
X655757Y434485D01*
X655329Y433844D01*
X655306Y433865D01*
X654954Y434221D01*
X655173Y434749D01*
X655173Y434749D01*
X655388Y435267D01*
X655382Y435281D01*
X655358Y435279D01*
X655363Y435289D01*
X655265Y435526D01*
X655259Y435524D01*
X655177Y435721D01*
X655174Y435719D01*
X655134Y435817D01*
X655050Y435852D01*
X655049Y435851D01*
X654882Y435920D01*
X654874Y435917D01*
X654874Y435914D01*
X654869Y435916D01*
X654753Y435868D01*
X654753Y435868D01*
X654668Y435833D01*
X654655Y435803D01*
X654652Y435805D01*
X654600Y435679D01*
X654598Y435679D01*
X654530Y435515D01*
X654570Y435512D01*
X654585Y434958D01*
X654441Y434609D01*
X654441Y434610D01*
X654307Y434286D01*
X654295Y434296D01*
X654275Y434248D01*
X653997Y434132D01*
X653997Y434132D01*
X653657Y433991D01*
X653639Y433999D01*
X653642Y433997D01*
X653620Y433988D01*
X653226Y434151D01*
X653226Y434151D01*
X652962Y434260D01*
X652909Y434388D01*
X652898Y434380D01*
X652737Y434770D01*
X652739Y434771D01*
X652652Y435209D01*
X652655Y435225D01*
X652641Y435225D01*
X652638Y435238D01*
X652711Y435602D01*
X652711Y435602D01*
X652776Y435930D01*
X652771Y435932D01*
X652779Y435972D01*
X653097Y436448D01*
X653105Y436441D01*
X653560Y436056D01*
X653316Y435690D01*
X653315Y435689D01*
X653353Y435673D01*
X653175Y435245D01*
X653184Y435224D01*
X653195Y435227D01*
X653186Y435206D01*
X653284Y434969D01*
X653292Y434971D01*
X653364Y434798D01*
X653363Y434797D01*
X653372Y434774D01*
X653638Y434664D01*
X653647Y434668D01*
X653646Y434674D01*
X653744Y434714D01*
X653745Y434714D01*
X653850Y434758D01*
X653852Y434763D01*
X653849Y434766D01*
X653906Y434903D01*
X653909Y434902D01*
X653991Y435100D01*
X653939Y435103D01*
X653888Y435622D01*
X653981Y435846D01*
X653988Y435844D01*
X654066Y436030D01*
X654066Y436030D01*
X654176Y436298D01*
X654254Y436330D01*
X654249Y436337D01*
X654562Y436466D01*
X654562Y436467D01*
X654895Y436605D01*
X654905Y436601D01*
D02*
G37*
G36*
X660761Y438153D02*
Y437604D01*
X658590Y436954D01*
Y436942D01*
X660761Y436294D01*
Y435743D01*
X657658Y434752D01*
Y435412D01*
X659831Y436007D01*
Y436019D01*
X657658Y436722D01*
Y437176D01*
X659831Y437878D01*
Y437891D01*
X657658Y438485D01*
Y439146D01*
X660761Y438153D01*
D02*
G37*
G36*
Y433752D02*
X660481Y433800D01*
X660548Y433772D01*
X660708Y433388D01*
X660707Y433388D01*
X660884Y432961D01*
X660879Y432949D01*
X660892Y432951D01*
X660896Y432942D01*
X660787Y432679D01*
X660782Y432681D01*
X660688Y432455D01*
X660689Y432455D01*
X660565Y432155D01*
X660416Y432094D01*
X660418Y432092D01*
X660010Y431923D01*
X660006Y431942D01*
X659695Y431880D01*
X659695Y431880D01*
X659245Y431821D01*
X659205Y431826D01*
X659206Y431828D01*
X659167Y431823D01*
X658723Y431881D01*
X658723D01*
X658415Y431943D01*
X658412Y431924D01*
X658004Y432093D01*
X658003Y432091D01*
X657857Y432151D01*
X657732Y432454D01*
X657732Y432454D01*
X657638Y432681D01*
X657634Y432680D01*
X657525Y432942D01*
X657529Y432951D01*
X657552Y432949D01*
X657546Y432963D01*
X657721Y433386D01*
X657716Y433388D01*
X657960Y433752D01*
X656405D01*
Y434376D01*
X660761D01*
Y433752D01*
D02*
G37*
G36*
X658451Y439892D02*
X658451Y439892D01*
X658453Y439894D01*
X658451Y439892D01*
D02*
G37*
G36*
X654713Y439463D02*
X654711Y439450D01*
X655023Y439388D01*
X655023Y439385D01*
X655516Y439181D01*
X655510Y439176D01*
X655563Y439154D01*
X655630Y438991D01*
X655604Y438972D01*
X655739Y438772D01*
X655737Y438771D01*
X655844Y438512D01*
X655827Y438508D01*
X655889Y438196D01*
X655886Y438182D01*
X655886Y438182D01*
X655889Y438167D01*
X655827Y437853D01*
X655844Y437849D01*
X655737Y437590D01*
X655738Y437589D01*
X655605Y437389D01*
X655630Y437370D01*
X655566Y437214D01*
X655508Y437190D01*
X655516Y437182D01*
X655022Y436977D01*
X655023Y436975D01*
X654711Y436913D01*
X654713Y436900D01*
X654297Y436817D01*
X654267Y436823D01*
X654267Y436825D01*
X654268Y436825D01*
X654267Y436903D01*
X654267Y436825D01*
X654239Y436820D01*
X653830Y436901D01*
X653831Y436913D01*
X653522Y436974D01*
X653522Y436977D01*
X653029Y437182D01*
X653031Y437184D01*
X652982Y437205D01*
X652914Y437369D01*
X652941Y437389D01*
X652807Y437589D01*
X652807Y437589D01*
X652699Y437849D01*
X652716Y437853D01*
X652653Y438167D01*
X652656Y438182D01*
X652564Y438181D01*
X652558Y438196D01*
X652689Y438514D01*
X652699Y438511D01*
X652807Y438771D01*
X652807Y438771D01*
X652942Y438973D01*
X652915Y438992D01*
X652986Y439163D01*
X653028Y439181D01*
X653029Y439181D01*
X653522Y439385D01*
X653522Y439388D01*
X653831Y439449D01*
X653830Y439461D01*
X654239Y439543D01*
X654268Y439537D01*
X654267Y439539D01*
X654297Y439545D01*
X654713Y439463D01*
D02*
G37*
G36*
X654267Y436825D02*
D01*
D01*
D01*
D01*
D02*
G37*
G36*
X653760Y432248D02*
X653760Y432137D01*
X655822D01*
Y431513D01*
X653976Y431576D01*
X653961Y431582D01*
X653694Y431471D01*
X653695Y431470D01*
X653453Y431370D01*
X653453Y431371D01*
X653445Y431367D01*
X653352Y431142D01*
X653352Y431142D01*
X653255Y430910D01*
X653259Y430902D01*
X653257Y430903D01*
X653253Y430894D01*
X653352Y430657D01*
X653352Y430657D01*
X653446Y430429D01*
X653453Y430427D01*
X653453Y430427D01*
X653695Y430327D01*
X653694Y430326D01*
X653961Y430215D01*
X653976Y430221D01*
X653975Y430284D01*
X655822D01*
Y429660D01*
X652719D01*
Y430284D01*
X652992D01*
X653030Y430268D01*
X653051Y430284D01*
X652992D01*
X652909Y430318D01*
X652775Y430643D01*
X652775Y430643D01*
X652593Y431083D01*
X652602Y431105D01*
X652605Y431103D01*
X652752Y431458D01*
X652752D01*
X652911Y431841D01*
X652930Y431824D01*
X652968Y431917D01*
X653296Y432053D01*
X653508Y432141D01*
X653506Y432150D01*
X653753Y432252D01*
X653760Y432248D01*
D02*
G37*
G36*
X658451Y427246D02*
X658451Y427246D01*
X658453Y427248D01*
X658451Y427246D01*
D02*
G37*
G36*
X658698Y426201D02*
X658698Y426090D01*
X660761D01*
Y425466D01*
X658914Y425528D01*
X658899Y425534D01*
X658633Y425424D01*
X658633Y425423D01*
X658391Y425322D01*
X658391Y425323D01*
X658384Y425320D01*
X658290Y425094D01*
X658290Y425094D01*
X658194Y424862D01*
X658197Y424854D01*
X658195Y424855D01*
X658192Y424846D01*
X658290Y424609D01*
X658290Y424609D01*
X658384Y424382D01*
X658391Y424379D01*
X658391Y424379D01*
X658633Y424279D01*
X658633Y424278D01*
X658899Y424168D01*
X658914Y424174D01*
X658913Y424236D01*
X660761D01*
Y423612D01*
X652719D01*
Y424236D01*
X653005Y424190D01*
X652930Y424221D01*
X652773Y424599D01*
X652774Y424599D01*
X652597Y425027D01*
X652602Y425039D01*
X652592Y425037D01*
X652588Y425046D01*
X652696Y425306D01*
X652700Y425305D01*
X652794Y425531D01*
X652793Y425531D01*
X652923Y425845D01*
X653060Y425902D01*
X653067Y425894D01*
X653473Y426063D01*
X653477Y426044D01*
X653786Y426106D01*
X653786Y426105D01*
X654236Y426165D01*
X654275Y426160D01*
X654274Y426159D01*
X654313Y426164D01*
X654760Y426105D01*
X654760Y426106D01*
X655069Y426044D01*
X655073Y426063D01*
X655478Y425895D01*
X655481Y425899D01*
X655622Y425840D01*
X655751Y425530D01*
X655750Y425530D01*
X655843Y425306D01*
X655848Y425307D01*
X655956Y425046D01*
X655952Y425037D01*
X655929Y425039D01*
X655936Y425023D01*
X655762Y424602D01*
X655765Y424600D01*
X655614Y424236D01*
X655494D01*
X655579Y424152D01*
X655614Y424236D01*
X657930D01*
X657968Y424221D01*
X657989Y424236D01*
X657930D01*
X657848Y424270D01*
X657713Y424595D01*
X657714Y424595D01*
X657531Y425036D01*
X657540Y425057D01*
X657543Y425056D01*
X657691Y425411D01*
X657691D01*
X657849Y425793D01*
X657868Y425776D01*
X657907Y425870D01*
X658234Y426006D01*
X658446Y426093D01*
X658445Y426102D01*
X658691Y426204D01*
X658698Y426201D01*
D02*
G37*
G36*
X654713Y423043D02*
X654711Y423030D01*
X655023Y422968D01*
X655023Y422966D01*
X655516Y422761D01*
X655510Y422756D01*
X655563Y422734D01*
X655630Y422571D01*
X655604Y422553D01*
X655739Y422352D01*
X655737Y422351D01*
X655844Y422092D01*
X655827Y422088D01*
X655889Y421777D01*
X655886Y421762D01*
X655886Y421763D01*
X655890Y421747D01*
X655827Y421433D01*
X655844Y421429D01*
X655737Y421170D01*
X655738Y421169D01*
X655605Y420969D01*
X655630Y420950D01*
X655565Y420794D01*
X655508Y420770D01*
X655516Y420762D01*
X655022Y420557D01*
X655023Y420555D01*
X654711Y420493D01*
X654713Y420480D01*
X654297Y420397D01*
X654267Y420403D01*
X654267Y420406D01*
D01*
D01*
X654239Y420400D01*
X653830Y420481D01*
X653831Y420493D01*
X653522Y420555D01*
X653522Y420557D01*
X653029Y420762D01*
X653031Y420765D01*
X652982Y420785D01*
X652914Y420949D01*
X652941Y420969D01*
X652807Y421169D01*
X652807Y421169D01*
X652699Y421429D01*
X652716Y421433D01*
X652653Y421747D01*
X652656Y421763D01*
X652564Y421761D01*
X652558Y421777D01*
X652689Y422094D01*
X652699Y422092D01*
X652807Y422351D01*
X652807Y422351D01*
X652942Y422553D01*
X652915Y422573D01*
X652986Y422743D01*
X653028Y422761D01*
X653029Y422761D01*
X653522Y422966D01*
X653522Y422968D01*
X653831Y423029D01*
X653830Y423041D01*
X654239Y423123D01*
X654268Y423117D01*
X654267Y423119D01*
X654297Y423125D01*
X654713Y423043D01*
D02*
G37*
G36*
X657861Y431859D02*
X658376Y431426D01*
X658284Y431203D01*
X658284D01*
X658198Y430995D01*
X658193Y430995D01*
X658193Y430995D01*
X658375Y430557D01*
X658383Y430564D01*
X658401Y430520D01*
X658601Y430438D01*
X658601Y430437D01*
X658877Y430322D01*
X658897Y430331D01*
X658896Y430391D01*
X660761D01*
Y429767D01*
X657658D01*
Y430391D01*
X657930D01*
X657968Y430376D01*
X657989Y430391D01*
X657930D01*
X657848Y430425D01*
X657713Y430750D01*
X657714Y430750D01*
X657531Y431191D01*
X657540Y431212D01*
X657544Y431210D01*
X657543Y431211D01*
X657681Y431543D01*
X657681Y431543D01*
X657824Y431888D01*
X657861Y431859D01*
D02*
G37*
G36*
X658648Y429043D02*
X660772D01*
Y428439D01*
X660498D01*
X660499Y428428D01*
X660648Y428367D01*
X660731Y428167D01*
X660731Y428166D01*
X660817Y427957D01*
X660790Y427953D01*
X660842Y427695D01*
X660839Y427681D01*
X660924Y427681D01*
X660737Y427230D01*
X660736Y427230D01*
X660582Y426859D01*
X660574Y426870D01*
X660554Y426823D01*
X660234Y426690D01*
X660234Y426690D01*
X659874Y426541D01*
X659860Y426547D01*
X659862Y426541D01*
X659850Y426536D01*
X659503Y426680D01*
X659504Y426680D01*
X659165Y426821D01*
X659170Y426826D01*
X659149Y426835D01*
X659009Y427173D01*
X659008Y427172D01*
X658835Y427590D01*
X658839Y427599D01*
X658940Y427598D01*
Y428439D01*
X658613Y428466D01*
X658600Y428471D01*
X658432Y428402D01*
X658431Y428402D01*
X658331Y428361D01*
X658301Y428288D01*
X658299Y428289D01*
X658218Y428094D01*
X658204Y428097D01*
X658105Y427860D01*
X658123Y427817D01*
X658093Y427820D01*
X658089Y427811D01*
X658170Y427615D01*
X658191Y427618D01*
X658257Y427460D01*
X658259Y427461D01*
X658326Y427298D01*
X658451Y427246D01*
X658058Y426745D01*
X657891Y426814D01*
X657732Y427199D01*
X657732Y427199D01*
X657620Y427469D01*
X657648Y427474D01*
X657593Y427753D01*
X657600Y427790D01*
X657593Y427789D01*
X657584Y427834D01*
X657676Y428299D01*
X657660Y428303D01*
X657829Y428710D01*
X657831Y428709D01*
X657884Y428837D01*
X658165Y428953D01*
X658165D01*
X658381Y429043D01*
X658385Y429019D01*
X658648Y429071D01*
X658648Y429043D01*
D02*
G37*
G36*
X653995Y429223D02*
X653993Y429114D01*
X654507D01*
X654505Y427109D01*
X654526Y427101D01*
X654843Y427232D01*
X654842Y427233D01*
X655102Y427340D01*
X655111Y427363D01*
X655115Y427359D01*
X655226Y427626D01*
X655226Y427626D01*
X655344Y427910D01*
X655339Y427922D01*
X655344Y427920D01*
X655346Y427926D01*
X655198Y428284D01*
X655199Y428284D01*
X655048Y428648D01*
X655026Y428657D01*
X654973Y428602D01*
X655407Y429111D01*
X655537Y429057D01*
X655628Y428837D01*
X655621Y428831D01*
X655743Y428535D01*
X655769Y428545D01*
X655890Y427937D01*
X655889Y427932D01*
X655979D01*
X655784Y427461D01*
X655796Y427457D01*
X655773Y427341D01*
X655549Y427006D01*
X655564Y426996D01*
X655505Y426852D01*
X655365Y426794D01*
X655369Y426788D01*
X655079Y426668D01*
X655083Y426654D01*
X654722Y426582D01*
X654722Y426580D01*
X654302Y426496D01*
X654283Y426500D01*
X654283Y426500D01*
X654267Y426496D01*
X653864Y426577D01*
X653864Y426579D01*
X653513Y426649D01*
X653515Y426657D01*
X653229Y426776D01*
X653231Y426780D01*
X653029Y426864D01*
X652996Y426943D01*
X653021Y426964D01*
X652742Y427382D01*
X652742Y427383D01*
X652770Y427395D01*
X652587Y427837D01*
X652582Y427837D01*
X652578Y427847D01*
X652772Y428316D01*
X652772Y428316D01*
X652970Y428795D01*
X652984Y428781D01*
X653006Y428833D01*
X653454Y429019D01*
X653454Y429019D01*
X653971Y429233D01*
X653995Y429223D01*
D02*
G37*
G36*
X653222Y447767D02*
X653610Y447334D01*
X653496Y447287D01*
X653385Y447019D01*
X653387Y447018D01*
X653247Y446681D01*
X653249Y446675D01*
X653238Y446677D01*
X653229Y446656D01*
X653368Y446322D01*
X653368Y446322D01*
X653472Y446071D01*
X653530Y446047D01*
X653528Y446044D01*
X653849Y445910D01*
X653851Y445916D01*
X654249Y445836D01*
X654275Y445842D01*
X654274Y445842D01*
X654300Y445837D01*
X654696Y445916D01*
X654698Y445911D01*
X655018Y446043D01*
X655016Y446046D01*
X655073Y446070D01*
X655177Y446322D01*
X655178Y446322D01*
X655316Y446656D01*
X655307Y446677D01*
X655295Y446675D01*
X655298Y446682D01*
X655158Y447020D01*
X655159Y447020D01*
X655051Y447282D01*
X654932Y447331D01*
X655332Y447778D01*
X655432Y447711D01*
X655715Y447288D01*
X655713Y447287D01*
X655836Y446989D01*
X655840Y446990D01*
X655977Y446658D01*
X655974Y446652D01*
D01*
D01*
X655977Y446644D01*
X655768Y446139D01*
X655788Y446131D01*
X655780Y446089D01*
X655501Y445671D01*
X655531Y445646D01*
X655494Y445556D01*
X655290Y445472D01*
X655292Y445469D01*
X655006Y445350D01*
X655011Y445336D01*
X654670Y445268D01*
X654671Y445267D01*
X654288Y445191D01*
X654274Y445194D01*
X654275Y445194D01*
X654261Y445191D01*
X653878Y445267D01*
X653878Y445268D01*
X653537Y445336D01*
X653542Y445350D01*
X653255Y445469D01*
X653257Y445472D01*
X653049Y445559D01*
X653013Y445644D01*
X653044Y445671D01*
X652761Y446094D01*
X652754Y446130D01*
X652775Y446139D01*
X652566Y446645D01*
X652569Y446652D01*
X652569Y446651D01*
X652566Y446658D01*
X652703Y446990D01*
X652707Y446989D01*
X652830Y447287D01*
X652829Y447287D01*
X653112Y447711D01*
X653212Y447778D01*
X653222Y447767D01*
D02*
G37*
G36*
X658933Y447219D02*
X658932Y447110D01*
X659445D01*
X659444Y445105D01*
X659464Y445097D01*
X659781Y445228D01*
X659781Y445229D01*
X660040Y445336D01*
X660049Y445359D01*
X660053Y445355D01*
X660164Y445622D01*
X660165Y445622D01*
X660282Y445906D01*
X660277Y445917D01*
X660282Y445916D01*
X660285Y445922D01*
X660136Y446280D01*
X660137Y446280D01*
X659986Y446643D01*
X659964Y446653D01*
X659911Y446598D01*
X660346Y447107D01*
X660476Y447053D01*
X660567Y446833D01*
X660559Y446827D01*
X660682Y446531D01*
X660707Y446541D01*
X660828Y445933D01*
X660827Y445928D01*
X660918Y445928D01*
X660723Y445457D01*
X660735Y445452D01*
X660712Y445337D01*
X660488Y445002D01*
X660503Y444991D01*
X660443Y444848D01*
X660304Y444790D01*
X660308Y444784D01*
X660017Y444664D01*
X660022Y444650D01*
X659660Y444578D01*
X659660Y444576D01*
X659240Y444492D01*
X659222Y444496D01*
X659222Y444496D01*
X659221Y444496D01*
X659222Y444496D01*
X659205Y444492D01*
X658802Y444572D01*
X658803Y444575D01*
X658451Y444645D01*
X658454Y444653D01*
X658167Y444772D01*
X658170Y444776D01*
X657967Y444860D01*
X657934Y444939D01*
X657960Y444960D01*
X657681Y445378D01*
X657680Y445379D01*
X657709Y445391D01*
X657525Y445833D01*
X657520Y445833D01*
X657516Y445843D01*
X657710Y446312D01*
X657710Y446312D01*
X657909Y446791D01*
X657922Y446777D01*
X657944Y446829D01*
X658392Y447015D01*
X658392Y447015D01*
X658909Y447229D01*
X658933Y447219D01*
D02*
G37*
G36*
X652923Y445305D02*
X653438Y444872D01*
X653346Y444649D01*
X653346D01*
X653260Y444441D01*
X653255Y444441D01*
X653255Y444441D01*
X653437Y444003D01*
X653445Y444010D01*
X653463Y443966D01*
X653663Y443883D01*
X653662Y443883D01*
X653939Y443768D01*
X653959Y443777D01*
X653958Y443837D01*
X655822D01*
Y443213D01*
X652719D01*
Y443837D01*
X652992D01*
X653030Y443821D01*
X653051Y443837D01*
X652992D01*
X652909Y443871D01*
X652775Y444196D01*
X652775Y444196D01*
X652593Y444637D01*
X652602Y444658D01*
X652605Y444656D01*
X652605Y444657D01*
X652743Y444989D01*
X652743Y444989D01*
X652886Y445334D01*
X652923Y445305D01*
D02*
G37*
G36*
X653995Y450615D02*
X653993Y450507D01*
X654507D01*
X654505Y448502D01*
X654526Y448493D01*
X654843Y448624D01*
X654842Y448625D01*
X655102Y448733D01*
X655111Y448755D01*
X655115Y448751D01*
X655226Y449019D01*
X655226Y449019D01*
X655344Y449302D01*
X655339Y449314D01*
X655344Y449313D01*
X655346Y449319D01*
X655198Y449677D01*
X655199Y449677D01*
X655048Y450040D01*
X655026Y450049D01*
X654973Y449995D01*
X655407Y450504D01*
X655537Y450450D01*
X655628Y450230D01*
X655621Y450224D01*
X655743Y449927D01*
X655769Y449937D01*
X655890Y449329D01*
X655889Y449324D01*
X655979Y449324D01*
X655784Y448853D01*
X655796Y448849D01*
X655773Y448733D01*
X655549Y448398D01*
X655564Y448388D01*
X655505Y448244D01*
X655365Y448186D01*
X655369Y448181D01*
X655079Y448060D01*
X655083Y448046D01*
X654722Y447975D01*
X654722Y447972D01*
X654302Y447889D01*
X654283Y447892D01*
X654283Y447892D01*
X654267Y447889D01*
X653864Y447969D01*
X653864Y447972D01*
X653513Y448041D01*
X653515Y448050D01*
X653229Y448168D01*
X653231Y448172D01*
X653029Y448256D01*
X652996Y448335D01*
X653021Y448357D01*
X652742Y448775D01*
X652742Y448776D01*
X652770Y448788D01*
X652587Y449230D01*
X652582Y449229D01*
X652578Y449239D01*
X652772Y449709D01*
X652772Y449709D01*
X652970Y450187D01*
X652984Y450173D01*
X653006Y450225D01*
X653454Y450411D01*
X653454Y450411D01*
X653971Y450625D01*
X653995Y450615D01*
D02*
G37*
G36*
X654932Y447331D02*
X654910Y447307D01*
X654930Y447332D01*
X654932Y447331D01*
D02*
G37*
G36*
X642432Y447054D02*
X642468Y446969D01*
X642465Y446968D01*
X642999Y444181D01*
X643035Y444095D01*
X643092Y444071D01*
X643092Y444071D01*
X645427Y443104D01*
X645484Y443080D01*
X645570Y443116D01*
X645568Y443119D01*
X647917Y444712D01*
X648003Y444747D01*
X648118Y444700D01*
X648118Y444700D01*
X648109Y444691D01*
X650126Y442691D01*
X650174Y442576D01*
X650138Y442491D01*
X650136Y442492D01*
X648543Y440143D01*
X648507Y440057D01*
X648531Y440000D01*
X648974Y438931D01*
X648997Y438874D01*
X648950Y438759D01*
X648892Y438735D01*
X644072Y436767D01*
X644015Y436743D01*
X643901Y436791D01*
X643879Y436843D01*
X643917Y436860D01*
X643264Y437837D01*
X642178Y438563D01*
X640897Y438817D01*
X639617Y438563D01*
X638531Y437837D01*
X637805Y436751D01*
X637551Y435471D01*
X637805Y434190D01*
X638531Y433104D01*
X639617Y432379D01*
X640897Y432124D01*
X642178Y432379D01*
X643264Y433104D01*
X643917Y434081D01*
X643879Y434098D01*
X643901Y434150D01*
X644015Y434198D01*
X644072Y434174D01*
X648892Y432206D01*
X648950Y432182D01*
X648997Y432068D01*
X648974Y432010D01*
X648974D01*
X648531Y430941D01*
X648507Y430884D01*
X648543Y430798D01*
X648545Y430800D01*
X650138Y428451D01*
X650174Y428365D01*
X650126Y428250D01*
X650117Y428259D01*
X648118Y426242D01*
X648118Y426242D01*
X648003Y426194D01*
X647917Y426230D01*
X647919Y426232D01*
X645570Y427825D01*
X645484Y427861D01*
X645427Y427837D01*
X645427D01*
X643092Y426870D01*
X643035Y426846D01*
X642999Y426761D01*
X643002Y426760D01*
X642468Y423973D01*
X642432Y423887D01*
X642318Y423839D01*
Y423852D01*
X639477Y423839D01*
X639362Y423887D01*
X639327Y423973D01*
X639330Y423973D01*
X638795Y426761D01*
X638760Y426846D01*
X638702Y426870D01*
Y426870D01*
X636368Y427837D01*
X636311Y427861D01*
X636225Y427825D01*
X636227Y427823D01*
X633877Y426230D01*
X633792Y426194D01*
X633677Y426242D01*
X633677Y426242D01*
X633686Y426250D01*
X631669Y428250D01*
X631621Y428365D01*
X631656Y428451D01*
X631659Y428449D01*
X633252Y430798D01*
X633288Y430884D01*
X633264Y430941D01*
Y430941D01*
X632297Y433276D01*
X632273Y433333D01*
X632187Y433369D01*
X632187Y433366D01*
X629399Y433900D01*
X629313Y433936D01*
X629266Y434050D01*
X629278D01*
X629266Y436891D01*
X629313Y437006D01*
X629399Y437041D01*
X629400Y437038D01*
X632187Y437573D01*
X632273Y437608D01*
X632297Y437666D01*
X632297Y437666D01*
X633264Y440000D01*
X633288Y440057D01*
X633252Y440143D01*
X633249Y440141D01*
X631656Y442491D01*
X631621Y442576D01*
X631669Y442691D01*
X631677Y442682D01*
X633677Y444700D01*
X633677Y444700D01*
X633792Y444747D01*
X633877Y444712D01*
X633876Y444709D01*
X636225Y443116D01*
X636311Y443080D01*
X636368Y443104D01*
X636368Y443104D01*
X638702Y444071D01*
X638760Y444095D01*
X638795Y444181D01*
X638792Y444181D01*
X639327Y446969D01*
X639362Y447054D01*
X639477Y447102D01*
X639477Y447102D01*
Y447090D01*
X642318Y447102D01*
X642318Y447102D01*
X642432Y447054D01*
D02*
G37*
G36*
X657861Y444514D02*
X658376Y444081D01*
X658284Y443858D01*
X658198Y443651D01*
X658193Y443651D01*
X658193Y443650D01*
X658375Y443212D01*
X658383Y443219D01*
X658401Y443176D01*
X658601Y443093D01*
X658601Y443092D01*
X658877Y442978D01*
X658897Y442986D01*
X658896Y443046D01*
X660761D01*
Y442422D01*
X657658D01*
Y443046D01*
X657930D01*
X657968Y443031D01*
X657989Y443046D01*
X657930D01*
X657848Y443081D01*
X657713Y443405D01*
X657714Y443405D01*
X657531Y443846D01*
X657540Y443867D01*
X657544Y443866D01*
X657543Y443866D01*
X657681Y444199D01*
X657681Y444199D01*
X657824Y444544D01*
X657861Y444514D01*
D02*
G37*
G36*
X655822Y441881D02*
X655550D01*
X655634Y441846D01*
X655768Y441523D01*
X655767Y441523D01*
X655948Y441087D01*
X655939Y441066D01*
X655939Y441067D01*
X655790Y440707D01*
X655790Y440707D01*
X655631Y440324D01*
X655613Y440340D01*
X655575Y440247D01*
X655248Y440111D01*
X655248D01*
X655035Y440023D01*
X655037Y440014D01*
X654790Y439912D01*
X654782Y439915D01*
X654782Y440027D01*
X652719D01*
Y440651D01*
X654569Y440588D01*
X654584Y440582D01*
X654852Y440693D01*
X654852Y440694D01*
X655094Y440794D01*
X655095Y440793D01*
X655098Y440795D01*
X655193Y441025D01*
X655194Y441025D01*
X655292Y441261D01*
X655288Y441270D01*
X655286Y441269D01*
X655290Y441277D01*
X655193Y441509D01*
X655193Y441509D01*
X655099Y441737D01*
X655095Y441739D01*
X655094Y441738D01*
X654852Y441838D01*
X654852Y441839D01*
X654584Y441950D01*
X654569Y441943D01*
X654570Y441881D01*
X652719D01*
Y442505D01*
X655822D01*
Y441881D01*
D02*
G37*
G36*
X658648Y441688D02*
X660772D01*
Y441085D01*
X660498D01*
X660499Y441074D01*
X660648Y441012D01*
X660731Y440812D01*
X660731Y440812D01*
X660817Y440602D01*
X660790Y440599D01*
X660842Y440340D01*
X660839Y440327D01*
X660924Y440327D01*
X660737Y439875D01*
X660736Y439876D01*
X660582Y439504D01*
X660574Y439515D01*
X660554Y439468D01*
X660234Y439336D01*
X660234Y439336D01*
X659874Y439187D01*
X659860Y439192D01*
X659862Y439187D01*
X659850Y439182D01*
X659503Y439326D01*
X659504Y439326D01*
X659165Y439466D01*
X659170Y439472D01*
X659149Y439480D01*
X659009Y439818D01*
X659008Y439818D01*
X658835Y440236D01*
X658839Y440245D01*
X658940Y440244D01*
Y441085D01*
X658613Y441112D01*
X658600Y441117D01*
X658432Y441047D01*
X658431Y441048D01*
X658331Y441006D01*
X658301Y440933D01*
X658299Y440935D01*
X658218Y440740D01*
X658204Y440742D01*
X658105Y440505D01*
X658123Y440462D01*
X658093Y440466D01*
X658089Y440457D01*
X658170Y440261D01*
X658191Y440264D01*
X658257Y440106D01*
X658259Y440106D01*
X658326Y439944D01*
X658451Y439892D01*
X658058Y439390D01*
X657891Y439459D01*
X657732Y439844D01*
X657732Y439844D01*
X657620Y440114D01*
X657648Y440119D01*
X657593Y440398D01*
X657600Y440435D01*
X657593Y440434D01*
X657584Y440479D01*
X657676Y440945D01*
X657660Y440949D01*
X657829Y441355D01*
X657831Y441355D01*
X657884Y441483D01*
X658165Y441599D01*
X658165D01*
X658381Y441689D01*
X658385Y441665D01*
X658648Y441717D01*
X658648Y441688D01*
D02*
G37*
%LPC*%
G36*
X653991Y449957D02*
X653684Y449829D01*
X653684Y449828D01*
X653425Y449721D01*
X653425Y449720D01*
X653415Y449716D01*
X653318Y449481D01*
X653318Y449481D01*
X653217Y449238D01*
X653221Y449229D01*
X653220Y449230D01*
X653216Y449222D01*
X653318Y448975D01*
X653318Y448975D01*
X653417Y448738D01*
X653425Y448735D01*
X653425Y448734D01*
X653684Y448627D01*
X653684Y448626D01*
X653992Y448498D01*
X653993Y448574D01*
X653991Y449957D01*
D02*
G37*
G36*
X659708Y428518D02*
X659680Y428507D01*
X659682Y428439D01*
X659454D01*
X659374Y427710D01*
X659471Y427476D01*
X659477Y427478D01*
X659547Y427308D01*
X659550Y427310D01*
X659572Y427258D01*
X659672Y427216D01*
X659672Y427217D01*
X659816Y427157D01*
X659832Y427164D01*
X659831Y427161D01*
X659833Y427161D01*
X659976Y427220D01*
X659977Y427219D01*
X660096Y427269D01*
X660114Y427312D01*
X660118Y427308D01*
X660197Y427496D01*
X660202Y427495D01*
X660303Y427740D01*
X660295Y427759D01*
X660248Y427757D01*
X660258Y427809D01*
X660204Y428083D01*
X660222Y428086D01*
X660134Y428298D01*
X660134Y428299D01*
X660116Y428341D01*
X660067Y428362D01*
X660069Y428364D01*
X659969Y428405D01*
X659971Y428410D01*
X659708Y428518D01*
D02*
G37*
G36*
X654252Y422498D02*
X653984Y422445D01*
X653982Y422479D01*
X653794Y422401D01*
X653796Y422392D01*
X653525Y422280D01*
X653528Y422275D01*
X653439Y422238D01*
X653364Y422057D01*
X653365Y422057D01*
X653249Y421779D01*
X653256Y421763D01*
X653249Y421745D01*
X653365Y421465D01*
X653364Y421465D01*
X653438Y421289D01*
X653529Y421251D01*
X653523Y421243D01*
X653796Y421130D01*
X653794Y421117D01*
X653980Y421040D01*
X653982Y421076D01*
X654246Y421024D01*
X654268Y421028D01*
X654267Y421024D01*
X654290Y421019D01*
X654561Y421073D01*
X654562Y421037D01*
X654753Y421116D01*
X654750Y421130D01*
X655022Y421243D01*
X655015Y421251D01*
X655107Y421289D01*
X655180Y421465D01*
X655180Y421465D01*
X655296Y421745D01*
X655289Y421763D01*
X655295Y421779D01*
X655180Y422057D01*
X655180Y422057D01*
X655105Y422238D01*
X655016Y422275D01*
X655020Y422280D01*
X654751Y422392D01*
X654753Y422401D01*
X654566Y422478D01*
X654564Y422444D01*
X654297Y422498D01*
X654275Y422493D01*
Y422494D01*
X654252Y422498D01*
D02*
G37*
G36*
X654267Y420483D02*
X654267Y420406D01*
D01*
D01*
X654268Y420406D01*
X654267Y420483D01*
D02*
G37*
G36*
X654253Y425512D02*
X653610Y425384D01*
X653611Y425381D01*
X653423Y425303D01*
X653381Y425202D01*
X653381Y425203D01*
X653317Y425049D01*
X653309Y425051D01*
X653230Y424858D01*
X653234Y424848D01*
X653237Y424850D01*
X653233Y424839D01*
X653312Y424648D01*
X653318Y424649D01*
X653382Y424496D01*
X653383Y424496D01*
X653422Y424401D01*
X653621Y424319D01*
X653620Y424317D01*
X654267Y424188D01*
X654275Y424190D01*
X654274Y424190D01*
X654282Y424189D01*
X654926Y424317D01*
X654925Y424319D01*
X655123Y424401D01*
X655162Y424496D01*
X655163Y424496D01*
X655227Y424649D01*
X655233Y424648D01*
X655312Y424839D01*
X655309Y424848D01*
X655311Y424848D01*
X655315Y424858D01*
X655236Y425051D01*
X655228Y425049D01*
X655165Y425203D01*
X655164Y425202D01*
X655122Y425303D01*
X654936Y425380D01*
X654937Y425384D01*
X654297Y425512D01*
X654274Y425507D01*
X654275Y425508D01*
X654253Y425512D01*
D02*
G37*
G36*
X659708Y441164D02*
X659680Y441152D01*
X659682Y441085D01*
X659454D01*
X659374Y440356D01*
X659471Y440122D01*
X659477Y440123D01*
X659547Y439954D01*
X659550Y439956D01*
X659572Y439903D01*
X659672Y439862D01*
X659672Y439862D01*
X659816Y439803D01*
X659832Y439809D01*
X659831Y439807D01*
X659833Y439806D01*
X659976Y439865D01*
X659977Y439865D01*
X660096Y439914D01*
X660114Y439958D01*
X660118Y439953D01*
X660197Y440142D01*
X660202Y440141D01*
X660303Y440385D01*
X660295Y440405D01*
X660248Y440402D01*
X660258Y440454D01*
X660204Y440729D01*
X660222Y440731D01*
X660134Y440944D01*
X660134Y440944D01*
X660116Y440987D01*
X660067Y441007D01*
X660069Y441009D01*
X659969Y441050D01*
X659971Y441055D01*
X659708Y441164D01*
D02*
G37*
G36*
X653991Y428564D02*
X653684Y428437D01*
X653684Y428436D01*
X653425Y428329D01*
X653426Y428327D01*
X653415Y428323D01*
X653318Y428089D01*
X653318Y428089D01*
X653217Y427845D01*
X653221Y427837D01*
X653220Y427838D01*
X653216Y427829D01*
X653318Y427583D01*
X653318Y427583D01*
X653417Y427346D01*
X653425Y427342D01*
X653425Y427342D01*
X653684Y427234D01*
X653684Y427234D01*
X653992Y427106D01*
X653993Y427182D01*
X653991Y428564D01*
D02*
G37*
G36*
X658930Y446560D02*
X658622Y446433D01*
X658622Y446432D01*
X658363Y446324D01*
X658364Y446323D01*
X658354Y446319D01*
X658257Y446085D01*
X658257Y446085D01*
X658156Y445841D01*
X658159Y445833D01*
X658158Y445834D01*
X658154Y445825D01*
X658256Y445579D01*
X658257Y445579D01*
X658355Y445342D01*
X658363Y445338D01*
X658363Y445338D01*
X658622Y445230D01*
X658622Y445229D01*
X658931Y445102D01*
X658932Y445178D01*
X658930Y446560D01*
D02*
G37*
G36*
X659215Y433799D02*
X659205Y433798D01*
X659206Y433798D01*
X659202Y433799D01*
X658558Y433671D01*
X658559Y433668D01*
X658360Y433585D01*
X658321Y433491D01*
X658320Y433492D01*
X658257Y433339D01*
X658251Y433340D01*
X658173Y433150D01*
X658176Y433142D01*
X658171Y433142D01*
X658167Y433131D01*
X658247Y432939D01*
X658255Y432940D01*
X658318Y432786D01*
X658319Y432786D01*
X658361Y432685D01*
X658547Y432608D01*
X658546Y432604D01*
X659184Y432477D01*
X659206Y432481D01*
X659205Y432481D01*
X659206Y432481D01*
X659206D01*
X659231Y432476D01*
X659875Y432604D01*
X659874Y432608D01*
X660060Y432685D01*
X660102Y432786D01*
X660103Y432786D01*
X660167Y432940D01*
X660174Y432939D01*
X660254Y433131D01*
X660250Y433142D01*
X660245Y433140D01*
X660249Y433150D01*
X660170Y433340D01*
X660164Y433339D01*
X660101Y433492D01*
X660100Y433491D01*
X660062Y433585D01*
X659862Y433668D01*
X659863Y433670D01*
X659215Y433799D01*
D02*
G37*
G36*
X655515Y441895D02*
X655494Y441881D01*
X655550D01*
X655515Y441895D01*
D02*
G37*
G36*
X655974Y446652D02*
X655974Y446651D01*
X655974Y446652D01*
D01*
D02*
G37*
G36*
X654253Y438918D02*
X653984Y438865D01*
X653982Y438899D01*
X653794Y438821D01*
X653796Y438812D01*
X653525Y438699D01*
X653528Y438695D01*
X653439Y438658D01*
X653364Y438477D01*
X653365Y438477D01*
X653249Y438198D01*
X653256Y438182D01*
X653256Y438184D01*
X653256Y438181D01*
X653256Y438182D01*
X653249Y438165D01*
X653365Y437885D01*
X653364Y437885D01*
X653437Y437709D01*
X653529Y437671D01*
X653523Y437663D01*
X653796Y437550D01*
X653794Y437537D01*
X653980Y437460D01*
X653982Y437496D01*
X654246Y437444D01*
X654268Y437448D01*
X654267Y437444D01*
X654290Y437439D01*
X654561Y437493D01*
X654562Y437457D01*
X654753Y437536D01*
X654750Y437550D01*
X655022Y437663D01*
X655015Y437671D01*
X655107Y437709D01*
X655180Y437885D01*
X655180Y437885D01*
X655296Y438165D01*
X655289Y438182D01*
X655288Y438181D01*
X655288Y438184D01*
X655289Y438182D01*
X655295Y438198D01*
X655180Y438477D01*
X655180Y438477D01*
X655105Y438658D01*
X655016Y438695D01*
X655020Y438700D01*
X654751Y438811D01*
X654753Y438821D01*
X654566Y438898D01*
X654564Y438864D01*
X654296Y438918D01*
X654275Y438913D01*
Y438914D01*
X654253Y438918D01*
D02*
G37*
%LPD*%
G36*
X655289Y421763D02*
X655288Y421761D01*
X655288Y421764D01*
X655289Y421763D01*
D02*
G37*
G36*
X653256Y421761D02*
X653256Y421763D01*
X653256Y421764D01*
X653256Y421761D01*
D02*
G37*
G36*
X654275Y422418D02*
X654274Y422493D01*
X654275Y422493D01*
X654275Y422418D01*
D02*
G37*
G36*
X658246Y433141D02*
X658177Y433140D01*
X658176Y433142D01*
X658246Y433141D01*
D02*
G37*
G36*
X655309Y424848D02*
X655237Y424849D01*
X655308Y424850D01*
X655309Y424848D01*
D02*
G37*
G36*
X654275Y438838D02*
X654274Y438913D01*
X654275Y438913D01*
X654275Y438838D01*
D02*
G37*
D12*
X504190Y513798D02*
G03*
X416690Y453798I3607J-99062D01*
G01*
X591690D02*
G03*
X504190Y513798I-91107J-39062D01*
G01*
X504190Y263798D02*
G03*
X591690Y323798I-3607J99062D01*
G01*
X416690D02*
G03*
X504190Y263798I91107J39062D01*
G01*
X537882Y380892D02*
G03*
X537882Y396703I-23243J7906D01*
G01*
X540324Y375573D02*
G03*
X539439Y403313I-20684J13225D01*
G01*
X541690Y368798D02*
G03*
X541690Y408798I-20000J20000D01*
G01*
X416690Y453798D02*
X591690D01*
X416690Y323798D02*
X591690D01*
X591690D02*
Y453798D01*
X481690Y366298D02*
Y411298D01*
Y366298D02*
X491690D01*
Y411298D01*
X481690D02*
X491690D01*
Y406298D02*
X531690Y411298D01*
Y371298D02*
Y411298D01*
Y366298D02*
Y371298D01*
X491690D02*
X531690Y366298D01*
X416690Y323798D02*
Y453798D01*
X362750Y336500D02*
X347515D01*
X352593Y341578D01*
X347515Y346657D01*
X362750D01*
Y359353D02*
Y354274D01*
X360211Y351735D01*
X355132D01*
X352593Y354274D01*
Y359353D01*
X355132Y361892D01*
X357672D01*
Y351735D01*
X362750Y366970D02*
Y372048D01*
Y369509D01*
X347515D01*
Y366970D01*
X352593Y382205D02*
Y387284D01*
X355132Y389823D01*
X362750D01*
Y382205D01*
X360211Y379666D01*
X357672Y382205D01*
Y389823D01*
X362750Y394901D02*
X352593D01*
Y402519D01*
X355132Y405058D01*
X362750D01*
Y410136D02*
Y417754D01*
X360211Y420293D01*
X357672Y417754D01*
Y412675D01*
X355132Y410136D01*
X352593Y412675D01*
Y420293D01*
X362750Y427910D02*
Y432989D01*
X360211Y435528D01*
X355132D01*
X352593Y432989D01*
Y427910D01*
X355132Y425371D01*
X360211D01*
X362750Y427910D01*
Y440606D02*
X352593D01*
Y448224D01*
X355132Y450763D01*
X362750D01*
X347515Y455841D02*
Y465998D01*
Y460920D01*
X362750D01*
Y478694D02*
Y473616D01*
X360211Y471077D01*
X355132D01*
X352593Y473616D01*
Y478694D01*
X355132Y481233D01*
X357672D01*
Y471077D01*
X352593Y496468D02*
Y488851D01*
X355132Y486311D01*
X360211D01*
X362750Y488851D01*
Y496468D01*
X347515Y501547D02*
X362750D01*
X355132D01*
X352593Y504086D01*
Y509164D01*
X355132Y511703D01*
X362750D01*
X375554Y360622D02*
X373015Y358083D01*
Y353005D01*
X375554Y350466D01*
X378093D01*
X380633Y353005D01*
Y358083D01*
X383172Y360622D01*
X385711D01*
X388250Y358083D01*
Y353005D01*
X385711Y350466D01*
X393328Y365701D02*
X378093D01*
Y373318D01*
X380633Y375857D01*
X385711D01*
X388250Y373318D01*
Y365701D01*
Y388553D02*
Y383475D01*
X385711Y380936D01*
X380633D01*
X378093Y383475D01*
Y388553D01*
X380633Y391092D01*
X383172D01*
Y380936D01*
X378093Y398710D02*
Y403788D01*
X380633Y406327D01*
X388250D01*
Y398710D01*
X385711Y396171D01*
X383172Y398710D01*
Y406327D01*
X388250Y411406D02*
X373015D01*
X383172D02*
X378093Y419023D01*
X383172Y411406D02*
X388250Y419023D01*
Y434258D02*
Y429180D01*
X385711Y426641D01*
X380633D01*
X378093Y429180D01*
Y434258D01*
X380633Y436798D01*
X383172D01*
Y426641D01*
X378093Y441876D02*
X388250D01*
X383172D01*
X380633Y444415D01*
X378093Y446954D01*
Y449493D01*
X388250Y457111D02*
X373015D01*
X378093Y462189D01*
X373015Y467268D01*
X388250D01*
Y474885D02*
Y479964D01*
X385711Y482503D01*
X380633D01*
X378093Y479964D01*
Y474885D01*
X380633Y472346D01*
X385711D01*
X388250Y474885D01*
X373015Y497738D02*
X388250D01*
Y490120D01*
X385711Y487581D01*
X380633D01*
X378093Y490120D01*
Y497738D01*
X393015Y399980D02*
X403172D01*
X408250Y405058D01*
X403172Y410136D01*
X393015D01*
X395554Y415215D02*
X393015Y417754D01*
Y422832D01*
X395554Y425371D01*
X405711D01*
X408250Y422832D01*
Y417754D01*
X405711Y415215D01*
X395554D01*
X408250Y430450D02*
X405711D01*
Y432989D01*
X408250D01*
Y430450D01*
Y443145D02*
Y448224D01*
Y445685D01*
X393015D01*
X395554Y443145D01*
X670000Y167460D02*
Y256190D01*
X340000Y167460D02*
Y256190D01*
X550705Y170000D02*
X670000D01*
X340000D02*
X451167D01*
X654760Y175080D02*
X670000Y170000D01*
X654760Y164920D02*
X670000Y170000D01*
X340000D02*
X355240Y164920D01*
X340000Y170000D02*
X355240Y175080D01*
X257460Y260000D02*
X336190D01*
X257460Y520000D02*
X336190D01*
X260000Y260000D02*
Y333628D01*
Y438244D02*
Y520000D01*
Y260000D02*
X265080Y275240D01*
X254920D02*
X260000Y260000D01*
X254920Y504760D02*
X260000Y520000D01*
X265080Y504760D01*
X340000Y260000D02*
Y520000D01*
X670000D01*
Y260000D02*
Y520000D01*
X340000Y260000D02*
X670000D01*
D13*
X455231Y160858D02*
X460309D01*
X457770D01*
Y176094D01*
X455231Y173554D01*
X478083Y160858D02*
X467927D01*
X478083Y171015D01*
Y173554D01*
X475544Y176094D01*
X470466D01*
X467927Y173554D01*
X483162Y163398D02*
X485701Y160858D01*
X490779D01*
X493318Y163398D01*
Y173554D01*
X490779Y176094D01*
X485701D01*
X483162Y173554D01*
Y171015D01*
X485701Y168476D01*
X493318D01*
X498397Y163398D02*
X500936Y160858D01*
X506014D01*
X508554Y163398D01*
Y173554D01*
X506014Y176094D01*
X500936D01*
X498397Y173554D01*
Y171015D01*
X500936Y168476D01*
X508554D01*
X513632Y160858D02*
Y163398D01*
X516171D01*
Y160858D01*
X513632D01*
X536484D02*
X526328D01*
X536484Y171015D01*
Y173554D01*
X533945Y176094D01*
X528867D01*
X526328Y173554D01*
X541563Y160858D02*
X546641D01*
X544102D01*
Y176094D01*
X541563Y173554D01*
X269142Y337692D02*
Y342770D01*
Y340231D01*
X253906D01*
X256446Y337692D01*
Y350387D02*
X253906Y352927D01*
Y358005D01*
X256446Y360544D01*
X266602D01*
X269142Y358005D01*
Y352927D01*
X266602Y350387D01*
X256446D01*
X269142Y375779D02*
Y365623D01*
X258985Y375779D01*
X256446D01*
X253906Y373240D01*
Y368162D01*
X256446Y365623D01*
Y380858D02*
X253906Y383397D01*
Y388475D01*
X256446Y391014D01*
X258985D01*
X261524Y388475D01*
Y385936D01*
Y388475D01*
X264063Y391014D01*
X266602D01*
X269142Y388475D01*
Y383397D01*
X266602Y380858D01*
X269142Y396093D02*
X266602D01*
Y398632D01*
X269142D01*
Y396093D01*
X253906Y418945D02*
X256446Y413867D01*
X261524Y408789D01*
X266602D01*
X269142Y411328D01*
Y416406D01*
X266602Y418945D01*
X264063D01*
X261524Y416406D01*
Y408789D01*
X269142Y434180D02*
Y424024D01*
X258985Y434180D01*
X256446D01*
X253906Y431641D01*
Y426563D01*
X256446Y424024D01*
D25*
X650136Y442492D02*
G03*
X650117Y442682I-124J84D01*
G01*
Y428259D02*
G03*
X650136Y428449I-106J106D01*
G01*
X643879Y436843D02*
G03*
X644072Y436767I136J63D01*
G01*
X648892Y438735D02*
G03*
X648974Y438931I-57J139D01*
G01*
X648545Y440141D02*
G03*
X648531Y440000I124J-84D01*
G01*
X648109Y444691D02*
G03*
X647919Y444709I-106J-106D01*
G01*
X645427Y443104D02*
G03*
X645568Y443119I57J139D01*
G01*
X643002Y444181D02*
G03*
X643092Y444071I147J28D01*
G01*
X642465Y446968D02*
G03*
X642318Y447090I-147J-28D01*
G01*
X639477D02*
G03*
X639330Y446968I-0J-150D01*
G01*
X638702Y444071D02*
G03*
X638792Y444181I-57J139D01*
G01*
X636227Y443119D02*
G03*
X636368Y443104I84J124D01*
G01*
X633876Y444709D02*
G03*
X633686Y444691I-84J-124D01*
G01*
X631677Y442682D02*
G03*
X631659Y442492I106J-106D01*
G01*
X633264Y440000D02*
G03*
X633249Y440141I-139J57D01*
G01*
X632187Y437576D02*
G03*
X632297Y437666I-28J147D01*
G01*
X629400Y437038D02*
G03*
X629278Y436891I28J-147D01*
G01*
Y434050D02*
G03*
X629400Y433903I150J0D01*
G01*
X632297Y433276D02*
G03*
X632187Y433366I-139J-57D01*
G01*
X633249Y430800D02*
G03*
X633264Y430941I-124J84D01*
G01*
X631659Y428449D02*
G03*
X631677Y428259I124J-84D01*
G01*
X633686Y426250D02*
G03*
X633876Y426232I106J106D01*
G01*
X636368Y427837D02*
G03*
X636227Y427823I-57J-139D01*
G01*
X638792Y426760D02*
G03*
X638702Y426870I-147J-28D01*
G01*
X639330Y423973D02*
G03*
X639477Y423852I147J28D01*
G01*
X642318D02*
G03*
X642465Y423973I0J150D01*
G01*
X643092Y426870D02*
G03*
X643002Y426760I57J-139D01*
G01*
X645568Y427823D02*
G03*
X645427Y427837I-84J-124D01*
G01*
X647919Y426232D02*
G03*
X648109Y426250I84J124D01*
G01*
X648531Y430941D02*
G03*
X648545Y430800I139J-57D01*
G01*
X648974Y432010D02*
G03*
X648892Y432206I-139J57D01*
G01*
X644072Y434174D02*
G03*
X643879Y434098I-57J-139D01*
G01*
Y436843D02*
G03*
X643879Y434098I-2982J-1372D01*
G01*
X644072Y436767D02*
X648892Y438735D01*
X648531Y440000D02*
X648974Y438931D01*
X648545Y440141D02*
X650136Y442492D01*
X648109Y444691D02*
X650117Y442682D01*
X645568Y443119D02*
X647919Y444709D01*
X643092Y444071D02*
X645427Y443104D01*
X642465Y446968D02*
X643002Y444181D01*
X639477Y447090D02*
X642318D01*
X638792Y444181D02*
X639330Y446968D01*
X636368Y443104D02*
X638702Y444071D01*
X633876Y444709D02*
X636227Y443119D01*
X631677Y442682D02*
X633686Y444691D01*
X631659Y442492D02*
X633249Y440141D01*
X632297Y437666D02*
X633264Y440000D01*
X629400Y437038D02*
X632187Y437576D01*
X629278Y434050D02*
Y436891D01*
X629400Y433903D02*
X632187Y433366D01*
X632297Y433276D02*
X633264Y430941D01*
X631659Y428449D02*
X633249Y430800D01*
X631677Y428259D02*
X633686Y426250D01*
X633876Y426232D02*
X636227Y427823D01*
X636368Y427837D02*
X638702Y426870D01*
X638792Y426760D02*
X639330Y423973D01*
X639477Y423852D02*
X642318D01*
X642465Y423973D02*
X643002Y426760D01*
X643092Y426870D02*
X645427Y427837D01*
X645568Y427823D02*
X647919Y426232D01*
X648109Y426250D02*
X650117Y428259D01*
X648545Y430800D02*
X650136Y428449D01*
X648531Y430941D02*
X648974Y432010D01*
X644072Y434174D02*
X648892Y432206D01*
D26*
X609000Y414000D02*
X661750D01*
X609000Y265250D02*
Y414000D01*
X661750Y265250D02*
Y414000D01*
X609000Y265250D02*
X661750D01*
M02*
