G04*
G04 #@! TF.GenerationSoftware,Altium Limited,CircuitStudio,1.5.2 (1.5.2.30)*
G04*
G04 Layer_Physical_Order=1*
G04 Layer_Color=11767835*
%FSLAX44Y44*%
%MOMM*%
G71*
G01*
G75*
%ADD10R,2.4000X2.0000*%
%ADD11C,0.5000*%
%ADD12C,0.2540*%
%ADD13C,0.1524*%
%ADD14C,1.5240*%
%ADD15C,6.0000*%
%ADD16R,1.5240X1.5240*%
%ADD17C,1.2700*%
G36*
X665000Y265000D02*
X620218D01*
X620147Y266081D01*
X620138Y266208D01*
X620136Y266250D01*
X621039Y266389D01*
X621063Y266392D01*
X621063D01*
X622652Y266602D01*
X625124Y267625D01*
X627246Y269254D01*
X628875Y271376D01*
X629898Y273848D01*
X630248Y276500D01*
X629898Y279152D01*
X628875Y281624D01*
X627246Y283746D01*
X625124Y285375D01*
X622652Y286399D01*
X620000Y286748D01*
X617348Y286399D01*
X614876Y285375D01*
X612754Y283746D01*
X611125Y281624D01*
X610102Y279152D01*
X609752Y276500D01*
X610102Y273848D01*
X611125Y271376D01*
X612754Y269254D01*
X614876Y267625D01*
X617348Y266602D01*
X618937Y266392D01*
X618937D01*
X618961Y266389D01*
X619864Y266250D01*
X619862Y266208D01*
X619853Y266081D01*
X619782Y265000D01*
X522643D01*
X522174Y266270D01*
X524625Y268363D01*
X527570Y271811D01*
X529939Y275678D01*
X531675Y279867D01*
X532733Y284277D01*
X533089Y288798D01*
X532733Y293319D01*
X531675Y297728D01*
X529939Y301918D01*
X527570Y305784D01*
X524625Y309232D01*
X521176Y312178D01*
X517310Y314547D01*
X513120Y316282D01*
X508711Y317341D01*
X504190Y317697D01*
X499669Y317341D01*
X495260Y316282D01*
X491070Y314547D01*
X487203Y312178D01*
X483755Y309232D01*
X480810Y305784D01*
X478441Y301918D01*
X476705Y297728D01*
X475647Y293319D01*
X475291Y288798D01*
X475647Y284277D01*
X476705Y279867D01*
X478441Y275678D01*
X480810Y271811D01*
X483755Y268363D01*
X486206Y266270D01*
X485737Y265000D01*
X394663D01*
X394415Y266246D01*
X395818Y266827D01*
X400186Y269503D01*
X404080Y272830D01*
X407407Y276724D01*
X410083Y281091D01*
X412043Y285823D01*
X413239Y290804D01*
X413641Y295910D01*
X413239Y301016D01*
X412043Y305996D01*
X410083Y310728D01*
X407407Y315096D01*
X404080Y318990D01*
X400186Y322317D01*
X395818Y324993D01*
X391087Y326953D01*
X386106Y328149D01*
X381000Y328551D01*
X375894Y328149D01*
X370914Y326953D01*
X366181Y324993D01*
X361814Y322317D01*
X357920Y318990D01*
X354593Y315096D01*
X351917Y310728D01*
X349957Y305996D01*
X348761Y301016D01*
X348359Y295910D01*
X348761Y290804D01*
X349957Y285823D01*
X351917Y281091D01*
X354593Y276724D01*
X357920Y272830D01*
X361814Y269503D01*
X366181Y266827D01*
X367585Y266246D01*
X367337Y265000D01*
X345000D01*
Y515000D01*
X489379D01*
X489737Y513730D01*
X487203Y512178D01*
X483755Y509232D01*
X480810Y505784D01*
X478441Y501918D01*
X476705Y497728D01*
X475647Y493318D01*
X475291Y488798D01*
X475647Y484277D01*
X476705Y479867D01*
X478441Y475678D01*
X480810Y471811D01*
X483755Y468363D01*
X487203Y465418D01*
X491070Y463048D01*
X495260Y461313D01*
X499669Y460254D01*
X504190Y459899D01*
X508711Y460254D01*
X513120Y461313D01*
X517310Y463048D01*
X521176Y465418D01*
X524625Y468363D01*
X527570Y471811D01*
X529939Y475678D01*
X531675Y479867D01*
X532733Y484277D01*
X533089Y488798D01*
X532733Y493318D01*
X531675Y497728D01*
X529939Y501918D01*
X527570Y505784D01*
X524625Y509232D01*
X521176Y512178D01*
X518643Y513730D01*
X519001Y515000D01*
X612379D01*
X612737Y513730D01*
X609464Y511725D01*
X605570Y508398D01*
X602243Y504503D01*
X599567Y500136D01*
X597607Y495404D01*
X596411Y490424D01*
X596009Y485318D01*
X596411Y480211D01*
X597607Y475231D01*
X599567Y470499D01*
X602243Y466132D01*
X605570Y462237D01*
X609464Y458911D01*
X613831Y456235D01*
X618563Y454275D01*
X623544Y453079D01*
X628650Y452677D01*
X633756Y453079D01*
X638736Y454275D01*
X643468Y456235D01*
X647836Y458911D01*
X651730Y462237D01*
X655057Y466132D01*
X657733Y470499D01*
X659693Y475231D01*
X660889Y480211D01*
X661291Y485318D01*
X660889Y490424D01*
X659693Y495404D01*
X657733Y500136D01*
X655057Y504503D01*
X651730Y508398D01*
X647836Y511725D01*
X644563Y513730D01*
X644921Y515000D01*
X665000D01*
Y265000D01*
D02*
G37*
%LPC*%
G36*
X620000Y362948D02*
X617348Y362598D01*
X614876Y361575D01*
X612754Y359946D01*
X611125Y357824D01*
X610102Y355352D01*
X609752Y352700D01*
X610102Y350048D01*
X611125Y347576D01*
X612754Y345454D01*
X614876Y343825D01*
X617348Y342802D01*
X620000Y342452D01*
X622652Y342802D01*
X625124Y343825D01*
X627246Y345454D01*
X628875Y347576D01*
X629898Y350048D01*
X630248Y352700D01*
X629898Y355352D01*
X628875Y357824D01*
X627246Y359946D01*
X625124Y361575D01*
X622652Y362598D01*
X620000Y362948D01*
D02*
G37*
G36*
X621270Y337380D02*
Y328570D01*
X630080D01*
X629898Y329952D01*
X628875Y332424D01*
X627246Y334546D01*
X625124Y336175D01*
X622652Y337198D01*
X621270Y337380D01*
D02*
G37*
G36*
X618730Y337380D02*
X617348Y337198D01*
X614876Y336175D01*
X612754Y334546D01*
X611125Y332424D01*
X610102Y329952D01*
X609920Y328570D01*
X618730D01*
Y337380D01*
D02*
G37*
G36*
X537480Y361480D02*
X529950D01*
X530089Y360429D01*
X530985Y358267D01*
X532410Y356410D01*
X534267Y354985D01*
X536429Y354089D01*
X537480Y353951D01*
Y361480D01*
D02*
G37*
G36*
X540020Y371549D02*
Y364020D01*
X547550D01*
X547411Y365071D01*
X546515Y367233D01*
X545090Y369090D01*
X543233Y370515D01*
X541071Y371411D01*
X540020Y371549D01*
D02*
G37*
G36*
X537480D02*
X536429Y371411D01*
X534267Y370515D01*
X532410Y369090D01*
X530985Y367233D01*
X530089Y365071D01*
X529950Y364020D01*
X537480D01*
Y371549D01*
D02*
G37*
G36*
X547550Y361480D02*
X540020D01*
Y353951D01*
X541071Y354089D01*
X543233Y354985D01*
X545090Y356410D01*
X546515Y358267D01*
X547411Y360429D01*
X547550Y361480D01*
D02*
G37*
G36*
X618730Y311980D02*
X617348Y311798D01*
X614876Y310775D01*
X612754Y309146D01*
X611125Y307024D01*
X610102Y304552D01*
X609920Y303170D01*
X618730D01*
Y311980D01*
D02*
G37*
G36*
Y300630D02*
X609920D01*
X610102Y299248D01*
X611125Y296776D01*
X612754Y294654D01*
X614876Y293025D01*
X617348Y292001D01*
X618730Y291819D01*
Y300630D01*
D02*
G37*
G36*
X630080D02*
X621270D01*
Y291819D01*
X622652Y292001D01*
X625124Y293025D01*
X627246Y294654D01*
X628875Y296776D01*
X629898Y299248D01*
X630080Y300630D01*
D02*
G37*
G36*
X621270Y311980D02*
Y303170D01*
X630080D01*
X629898Y304552D01*
X628875Y307024D01*
X627246Y309146D01*
X625124Y310775D01*
X622652Y311798D01*
X621270Y311980D01*
D02*
G37*
G36*
X419500Y363717D02*
X417179Y363411D01*
X415017Y362515D01*
X413160Y361090D01*
X411735Y359233D01*
X410839Y357071D01*
X410533Y354750D01*
X410839Y352429D01*
X411735Y350267D01*
X413160Y348410D01*
X413540Y348117D01*
Y346516D01*
X412660Y345840D01*
X411235Y343983D01*
X410339Y341821D01*
X410033Y339500D01*
X410339Y337179D01*
X411235Y335017D01*
X412660Y333160D01*
X414517Y331735D01*
X416679Y330839D01*
X419000Y330533D01*
X421321Y330839D01*
X423483Y331735D01*
X425340Y333160D01*
X425880Y333863D01*
X427150Y333432D01*
Y327258D01*
X456230D01*
Y352338D01*
X429430D01*
X428316Y353608D01*
X428467Y354750D01*
X428161Y357071D01*
X427265Y359233D01*
X425840Y361090D01*
X423983Y362515D01*
X421821Y363411D01*
X419500Y363717D01*
D02*
G37*
G36*
X618730Y326030D02*
X609920D01*
X610102Y324648D01*
X611125Y322176D01*
X612754Y320054D01*
X614876Y318425D01*
X617348Y317402D01*
X618730Y317220D01*
Y326030D01*
D02*
G37*
G36*
X630080D02*
X621270D01*
Y317220D01*
X622652Y317402D01*
X625124Y318425D01*
X627246Y320054D01*
X628875Y322176D01*
X629898Y324648D01*
X630080Y326030D01*
D02*
G37*
G36*
X558730Y405299D02*
X557679Y405161D01*
X555517Y404265D01*
X553660Y402840D01*
X552235Y400983D01*
X551339Y398821D01*
X551200Y397770D01*
X558730D01*
Y405299D01*
D02*
G37*
G36*
X630160Y402230D02*
X621270D01*
Y393340D01*
X630160D01*
Y402230D01*
D02*
G37*
G36*
X618730D02*
X609840D01*
Y393340D01*
X618730D01*
Y402230D01*
D02*
G37*
G36*
X561270Y405299D02*
Y397770D01*
X568800D01*
X568661Y398821D01*
X567765Y400983D01*
X566340Y402840D01*
X564483Y404265D01*
X562321Y405161D01*
X561270Y405299D01*
D02*
G37*
G36*
X456230Y450338D02*
X427150D01*
Y425258D01*
X456230D01*
Y432111D01*
X463488D01*
X464410Y430910D01*
X466267Y429485D01*
X468429Y428589D01*
X470750Y428283D01*
X473071Y428589D01*
X475233Y429485D01*
X477090Y430910D01*
X477835Y431880D01*
X479165D01*
X479910Y430910D01*
X481767Y429485D01*
X483929Y428589D01*
X486250Y428283D01*
X488571Y428589D01*
X490733Y429485D01*
X492590Y430910D01*
X494015Y432767D01*
X494911Y434929D01*
X495217Y437250D01*
X494911Y439571D01*
X494015Y441733D01*
X492590Y443590D01*
X490733Y445015D01*
X488571Y445911D01*
X486250Y446217D01*
X483929Y445911D01*
X481767Y445015D01*
X479910Y443590D01*
X479165Y442620D01*
X477835D01*
X477090Y443590D01*
X475233Y445015D01*
X473071Y445911D01*
X470750Y446217D01*
X468429Y445911D01*
X466267Y445015D01*
X464410Y443590D01*
X463488Y442389D01*
X456230D01*
Y450338D01*
D02*
G37*
G36*
X630160Y413660D02*
X621270D01*
Y404770D01*
X630160D01*
Y413660D01*
D02*
G37*
G36*
X618730D02*
X609840D01*
Y404770D01*
X618730D01*
Y413660D01*
D02*
G37*
G36*
X461300Y388730D02*
X453770D01*
Y381200D01*
X454821Y381339D01*
X456983Y382235D01*
X458840Y383660D01*
X460265Y385517D01*
X461161Y387679D01*
X461300Y388730D01*
D02*
G37*
G36*
X451230D02*
X443700D01*
X443839Y387679D01*
X444735Y385517D01*
X446160Y383660D01*
X448017Y382235D01*
X450179Y381339D01*
X451230Y381200D01*
Y388730D01*
D02*
G37*
G36*
X620000Y388348D02*
X617348Y387999D01*
X614876Y386975D01*
X612754Y385346D01*
X611125Y383224D01*
X610102Y380752D01*
X609752Y378100D01*
X610102Y375448D01*
X611125Y372976D01*
X612754Y370854D01*
X614876Y369225D01*
X617348Y368201D01*
X620000Y367852D01*
X622652Y368201D01*
X625124Y369225D01*
X627246Y370854D01*
X628875Y372976D01*
X629898Y375448D01*
X630248Y378100D01*
X629898Y380752D01*
X628875Y383224D01*
X627246Y385346D01*
X625124Y386975D01*
X622652Y387999D01*
X620000Y388348D01*
D02*
G37*
G36*
X558730Y395230D02*
X551200D01*
X551339Y394179D01*
X552235Y392017D01*
X553660Y390160D01*
X555517Y388735D01*
X557679Y387839D01*
X558730Y387701D01*
Y395230D01*
D02*
G37*
G36*
X453770Y398800D02*
Y391270D01*
X461300D01*
X461161Y392321D01*
X460265Y394483D01*
X458840Y396340D01*
X456983Y397765D01*
X454821Y398661D01*
X453770Y398800D01*
D02*
G37*
G36*
X451230D02*
X450179Y398661D01*
X448017Y397765D01*
X446160Y396340D01*
X444735Y394483D01*
X443839Y392321D01*
X443700Y391270D01*
X451230D01*
Y398800D01*
D02*
G37*
G36*
X568800Y395230D02*
X561270D01*
Y387701D01*
X562321Y387839D01*
X564483Y388735D01*
X566340Y390160D01*
X567765Y392017D01*
X568661Y394179D01*
X568800Y395230D01*
D02*
G37*
%LPD*%
D10*
X441690Y339798D02*
D03*
Y437798D02*
D03*
D11*
X419000Y339500D02*
X441392D01*
X441690Y437798D02*
X442142Y438250D01*
X443142Y437250D01*
X486250D01*
D12*
X441392Y339500D02*
X441690Y339798D01*
X670000Y167460D02*
Y256190D01*
X340000Y167460D02*
Y256190D01*
X550705Y170000D02*
X670000D01*
X340000D02*
X451167D01*
X654760Y175080D02*
X670000Y170000D01*
X654760Y164920D02*
X670000Y170000D01*
X340000D02*
X355240Y164920D01*
X340000Y170000D02*
X355240Y175080D01*
X257460Y260000D02*
X336190D01*
X257460Y520000D02*
X336190D01*
X260000Y260000D02*
Y333628D01*
Y438244D02*
Y520000D01*
Y260000D02*
X265080Y275240D01*
X254920D02*
X260000Y260000D01*
X254920Y504760D02*
X260000Y520000D01*
X265080Y504760D01*
X340000Y260000D02*
Y520000D01*
X670000D01*
Y260000D02*
Y520000D01*
X340000Y260000D02*
X670000D01*
D13*
X455231Y160858D02*
X460309D01*
X457770D01*
Y176094D01*
X455231Y173554D01*
X478083Y160858D02*
X467927D01*
X478083Y171015D01*
Y173554D01*
X475544Y176094D01*
X470466D01*
X467927Y173554D01*
X483162Y163398D02*
X485701Y160858D01*
X490779D01*
X493318Y163398D01*
Y173554D01*
X490779Y176094D01*
X485701D01*
X483162Y173554D01*
Y171015D01*
X485701Y168476D01*
X493318D01*
X498397Y163398D02*
X500936Y160858D01*
X506014D01*
X508554Y163398D01*
Y173554D01*
X506014Y176094D01*
X500936D01*
X498397Y173554D01*
Y171015D01*
X500936Y168476D01*
X508554D01*
X513632Y160858D02*
Y163398D01*
X516171D01*
Y160858D01*
X513632D01*
X536484D02*
X526328D01*
X536484Y171015D01*
Y173554D01*
X533945Y176094D01*
X528867D01*
X526328Y173554D01*
X541563Y160858D02*
X546641D01*
X544102D01*
Y176094D01*
X541563Y173554D01*
X269142Y337692D02*
Y342770D01*
Y340231D01*
X253906D01*
X256446Y337692D01*
Y350387D02*
X253906Y352927D01*
Y358005D01*
X256446Y360544D01*
X266602D01*
X269142Y358005D01*
Y352927D01*
X266602Y350387D01*
X256446D01*
X269142Y375779D02*
Y365623D01*
X258985Y375779D01*
X256446D01*
X253906Y373240D01*
Y368162D01*
X256446Y365623D01*
Y380858D02*
X253906Y383397D01*
Y388475D01*
X256446Y391014D01*
X258985D01*
X261524Y388475D01*
Y385936D01*
Y388475D01*
X264063Y391014D01*
X266602D01*
X269142Y388475D01*
Y383397D01*
X266602Y380858D01*
X269142Y396093D02*
X266602D01*
Y398632D01*
X269142D01*
Y396093D01*
X253906Y418945D02*
X256446Y413867D01*
X261524Y408789D01*
X266602D01*
X269142Y411328D01*
Y416406D01*
X266602Y418945D01*
X264063D01*
X261524Y416406D01*
Y408789D01*
X269142Y434180D02*
Y424024D01*
X258985Y434180D01*
X256446D01*
X253906Y431641D01*
Y426563D01*
X256446Y424024D01*
D14*
X504190Y288798D02*
D03*
Y488798D02*
D03*
X620000Y276500D02*
D03*
Y301900D02*
D03*
Y327300D02*
D03*
Y352700D02*
D03*
Y378100D02*
D03*
D15*
X381000Y295910D02*
D03*
X628650Y485318D02*
D03*
D16*
X620000Y403500D02*
D03*
D17*
X455000Y375000D02*
D03*
X419000Y339500D02*
D03*
X560000Y396500D02*
D03*
X538750Y362750D02*
D03*
X419500Y354750D02*
D03*
X486250Y437250D02*
D03*
X470750D02*
D03*
M02*
