G04*
G04 #@! TF.GenerationSoftware,Altium Limited,CircuitStudio,1.5.2 (1.5.2.30)*
G04*
G04 Layer_Color=16720538*
%FSLAX44Y44*%
%MOMM*%
G71*
G01*
G75*
%ADD12C,0.2540*%
%ADD13C,0.1524*%
D12*
X529190Y488798D02*
G03*
X529190Y488798I-25000J0D01*
G01*
Y288798D02*
G03*
X529190Y288798I-25000J0D01*
G01*
X670000Y167460D02*
Y256190D01*
X340000Y167460D02*
Y256190D01*
X550705Y170000D02*
X670000D01*
X340000D02*
X451167D01*
X654760Y175080D02*
X670000Y170000D01*
X654760Y164920D02*
X670000Y170000D01*
X340000D02*
X355240Y164920D01*
X340000Y170000D02*
X355240Y175080D01*
X257460Y260000D02*
X336190D01*
X257460Y520000D02*
X336190D01*
X260000Y260000D02*
Y333628D01*
Y438244D02*
Y520000D01*
Y260000D02*
X265080Y275240D01*
X254920D02*
X260000Y260000D01*
X254920Y504760D02*
X260000Y520000D01*
X265080Y504760D01*
X340000Y260000D02*
Y520000D01*
X670000D01*
Y260000D02*
Y520000D01*
X340000Y260000D02*
X670000D01*
D13*
X455231Y160858D02*
X460309D01*
X457770D01*
Y176094D01*
X455231Y173554D01*
X478083Y160858D02*
X467927D01*
X478083Y171015D01*
Y173554D01*
X475544Y176094D01*
X470466D01*
X467927Y173554D01*
X483162Y163398D02*
X485701Y160858D01*
X490779D01*
X493318Y163398D01*
Y173554D01*
X490779Y176094D01*
X485701D01*
X483162Y173554D01*
Y171015D01*
X485701Y168476D01*
X493318D01*
X498397Y163398D02*
X500936Y160858D01*
X506014D01*
X508554Y163398D01*
Y173554D01*
X506014Y176094D01*
X500936D01*
X498397Y173554D01*
Y171015D01*
X500936Y168476D01*
X508554D01*
X513632Y160858D02*
Y163398D01*
X516171D01*
Y160858D01*
X513632D01*
X536484D02*
X526328D01*
X536484Y171015D01*
Y173554D01*
X533945Y176094D01*
X528867D01*
X526328Y173554D01*
X541563Y160858D02*
X546641D01*
X544102D01*
Y176094D01*
X541563Y173554D01*
X269142Y337692D02*
Y342770D01*
Y340231D01*
X253906D01*
X256446Y337692D01*
Y350387D02*
X253906Y352927D01*
Y358005D01*
X256446Y360544D01*
X266602D01*
X269142Y358005D01*
Y352927D01*
X266602Y350387D01*
X256446D01*
X269142Y375779D02*
Y365623D01*
X258985Y375779D01*
X256446D01*
X253906Y373240D01*
Y368162D01*
X256446Y365623D01*
Y380858D02*
X253906Y383397D01*
Y388475D01*
X256446Y391014D01*
X258985D01*
X261524Y388475D01*
Y385936D01*
Y388475D01*
X264063Y391014D01*
X266602D01*
X269142Y388475D01*
Y383397D01*
X266602Y380858D01*
X269142Y396093D02*
X266602D01*
Y398632D01*
X269142D01*
Y396093D01*
X253906Y418945D02*
X256446Y413867D01*
X261524Y408789D01*
X266602D01*
X269142Y411328D01*
Y416406D01*
X266602Y418945D01*
X264063D01*
X261524Y416406D01*
Y408789D01*
X269142Y434180D02*
Y424024D01*
X258985Y434180D01*
X256446D01*
X253906Y431641D01*
Y426563D01*
X256446Y424024D01*
M02*
