G04*
G04 #@! TF.GenerationSoftware,Altium Limited,CircuitStudio,1.5.2 (1.5.2.30)*
G04*
G04 Layer_Color=2752767*
%FSLAX44Y44*%
%MOMM*%
G71*
G01*
G75*
%ADD12C,0.2540*%
%ADD13C,0.1524*%
%ADD44C,0.1270*%
%ADD45C,0.1693*%
D12*
X670000Y167460D02*
Y256190D01*
X340000Y167460D02*
Y256190D01*
X550705Y170000D02*
X670000D01*
X340000D02*
X451167D01*
X654760Y175080D02*
X670000Y170000D01*
X654760Y164920D02*
X670000Y170000D01*
X340000D02*
X355240Y164920D01*
X340000Y170000D02*
X355240Y175080D01*
X257460Y260000D02*
X336190D01*
X257460Y520000D02*
X336190D01*
X260000Y260000D02*
Y333628D01*
Y438244D02*
Y520000D01*
Y260000D02*
X265080Y275240D01*
X254920D02*
X260000Y260000D01*
X254920Y504760D02*
X260000Y520000D01*
X265080Y504760D01*
X340000Y260000D02*
Y520000D01*
X670000D01*
Y260000D02*
Y520000D01*
X340000Y260000D02*
X670000D01*
D13*
X455231Y160858D02*
X460309D01*
X457770D01*
Y176094D01*
X455231Y173554D01*
X478083Y160858D02*
X467927D01*
X478083Y171015D01*
Y173554D01*
X475544Y176094D01*
X470466D01*
X467927Y173554D01*
X483162Y163398D02*
X485701Y160858D01*
X490779D01*
X493318Y163398D01*
Y173554D01*
X490779Y176094D01*
X485701D01*
X483162Y173554D01*
Y171015D01*
X485701Y168476D01*
X493318D01*
X498397Y163398D02*
X500936Y160858D01*
X506014D01*
X508554Y163398D01*
Y173554D01*
X506014Y176094D01*
X500936D01*
X498397Y173554D01*
Y171015D01*
X500936Y168476D01*
X508554D01*
X513632Y160858D02*
Y163398D01*
X516171D01*
Y160858D01*
X513632D01*
X536484D02*
X526328D01*
X536484Y171015D01*
Y173554D01*
X533945Y176094D01*
X528867D01*
X526328Y173554D01*
X541563Y160858D02*
X546641D01*
X544102D01*
Y176094D01*
X541563Y173554D01*
X269142Y337692D02*
Y342770D01*
Y340231D01*
X253906D01*
X256446Y337692D01*
Y350387D02*
X253906Y352927D01*
Y358005D01*
X256446Y360544D01*
X266602D01*
X269142Y358005D01*
Y352927D01*
X266602Y350387D01*
X256446D01*
X269142Y375779D02*
Y365623D01*
X258985Y375779D01*
X256446D01*
X253906Y373240D01*
Y368162D01*
X256446Y365623D01*
Y380858D02*
X253906Y383397D01*
Y388475D01*
X256446Y391014D01*
X258985D01*
X261524Y388475D01*
Y385936D01*
Y388475D01*
X264063Y391014D01*
X266602D01*
X269142Y388475D01*
Y383397D01*
X266602Y380858D01*
X269142Y396093D02*
X266602D01*
Y398632D01*
X269142D01*
Y396093D01*
X253906Y418945D02*
X256446Y413867D01*
X261524Y408789D01*
X266602D01*
X269142Y411328D01*
Y416406D01*
X266602Y418945D01*
X264063D01*
X261524Y416406D01*
Y408789D01*
X269142Y434180D02*
Y424024D01*
X258985Y434180D01*
X256446D01*
X253906Y431641D01*
Y426563D01*
X256446Y424024D01*
D44*
X499110Y283718D02*
Y293878D01*
X509270D01*
Y283718D01*
X499110D01*
Y483718D02*
Y493878D01*
X509270D01*
Y483718D01*
X499110D01*
X620000Y271420D02*
X614920Y281580D01*
X625080D01*
X620000Y271420D01*
Y296820D02*
X614920Y306980D01*
X625080D01*
X620000Y296820D01*
Y322220D02*
X614920Y332380D01*
X625080D01*
X620000Y322220D01*
Y347620D02*
X614920Y357780D01*
X625080D01*
X620000Y347620D01*
Y373020D02*
X614920Y383180D01*
X625080D01*
X620000Y373020D01*
Y398420D02*
X614920Y408580D01*
X625080D01*
X620000Y398420D01*
X455000Y369920D02*
X457540Y372460D01*
X460080D01*
X457540Y375000D01*
X460080Y377540D01*
X457540D01*
X455000Y380080D01*
X452460Y377540D01*
X449920D01*
X452460Y375000D01*
X449920Y372460D01*
X452460D01*
X455000Y369920D01*
X419000Y334420D02*
X421540Y336960D01*
X424080D01*
X421540Y339500D01*
X424080Y342040D01*
X421540D01*
X419000Y344580D01*
X416460Y342040D01*
X413920D01*
X416460Y339500D01*
X413920Y336960D01*
X416460D01*
X419000Y334420D01*
X560000Y391420D02*
X562540Y393960D01*
X565080D01*
X562540Y396500D01*
X565080Y399040D01*
X562540D01*
X560000Y401580D01*
X557460Y399040D01*
X554920D01*
X557460Y396500D01*
X554920Y393960D01*
X557460D01*
X560000Y391420D01*
X538750Y357670D02*
X541290Y360210D01*
X543830D01*
X541290Y362750D01*
X543830Y365290D01*
X541290D01*
X538750Y367830D01*
X536210Y365290D01*
X533670D01*
X536210Y362750D01*
X533670Y360210D01*
X536210D01*
X538750Y357670D01*
X419500Y349670D02*
X422040Y352210D01*
X424580D01*
X422040Y354750D01*
X424580Y357290D01*
X422040D01*
X419500Y359830D01*
X416960Y357290D01*
X414420D01*
X416960Y354750D01*
X414420Y352210D01*
X416960D01*
X419500Y349670D01*
X486250Y432170D02*
X488790Y434710D01*
X491330D01*
X488790Y437250D01*
X491330Y439790D01*
X488790D01*
X486250Y442330D01*
X483710Y439790D01*
X481170D01*
X483710Y437250D01*
X481170Y434710D01*
X483710D01*
X486250Y432170D01*
X470750D02*
X473290Y434710D01*
X475830D01*
X473290Y437250D01*
X475830Y439790D01*
X473290D01*
X470750Y442330D01*
X468210Y439790D01*
X465670D01*
X468210Y437250D01*
X465670Y434710D01*
X468210D01*
X470750Y432170D01*
D45*
X386080Y295910D02*
G03*
X386080Y295910I-5080J0D01*
G01*
X633730Y485318D02*
G03*
X633730Y485318I-5080J0D01*
G01*
M02*
